# AST/ASF file generated using VICON BodyLanguage
# -----------------------------------------------
:version 1.10
:name VICON
:units
  mass 1.0
  length 0.45
  angle deg
:documentation
   .ast/.asf automatically generated from VICON data using
   VICON BodyBuilder and BodyLanguage model FoxedUp or BRILLIANT.MOD
:root
   order TX TY TZ RX RY RZ
   axis XYZ
   position 0 0 0  
   orientation 0 0 0 
:bonedata
  begin
     id 1 
     name lhipjoint
     direction 0.575328 -0.747301 0.332475 
     length 2.40933 
     axis 0 0 0  XYZ
  end
  begin
     id 2 
     name lfemur
     direction 0.34202 -0.939693 0  
     length 7.31453  
     axis 0 0 20  XYZ
    dof rx ry rz
    limits (-160.0 20.0)
           (-70.0 70.0)
           (-60.0 70.0)
  end
  begin
     id 3 
     name ltibia
     direction 0.34202 -0.939693 0   
     length 7.82185   
     axis 0 0 20   XYZ
    dof rx
    limits (-10.0 170.0)
  end
  begin
     id 4 
     name lfoot
     direction 0.0795993 -0.218697 0.972541   
     length 2.19173   
     axis -90 7.62852e-016 20   XYZ
    dof rx rz
    limits (-45.0 90.0)
           (-70.0 20.0)
  end
  begin
     id 5 
     name ltoes
     direction 1.53537e-011 -4.21894e-011 1   
     length 1.10023   
     axis -90 7.62852e-016 20   XYZ
    dof rx
    limits (-90.0 20.0)
  end
  begin
     id 6 
     name rhipjoint
     direction -0.513884 -0.783789 0.348708   
     length 2.29716  
     axis 0 0 0  XYZ 
  end
  begin
     id 7 
     name rfemur
     direction -0.34202 -0.939693 0   
     length 7.59573   
     axis 0 0 -20   XYZ
    dof rx ry rz
    limits (-160.0 20.0)
           (-70.0 70.0)
           (-70.0 60.0)
  end
  begin
     id 8 
     name rtibia
     direction -0.34202 -0.939693 0   
     length 7.66402   
     axis 0 0 -20   XYZ
    dof rx
    limits (-10.0 170.0)
 end
 begin
     id 9 
     name rfoot
     direction -0.137793 -0.378584 0.915253   
     length 2.27056  
     axis -90 -7.62852e-016 -20   XYZ
    dof rx rz
    limits (-45.0 90.0)
           (-20.0 70.0)
  end
  begin
     id 10 
     name rtoes
     direction -1.53493e-011 -4.22159e-011 1   
     length 1.11766   
     axis -90 -7.62852e-016 -20   XYZ
    dof rx
    limits (-90.0 20.0)
  end
  begin
     id 11 
     name lowerback
     direction -0.00732775 0.998356 -0.05685   
     length 2.16513   
     axis 0 0 0   XYZ
    dof rx ry rz
    limits (-20.0 45.0)
           (-30.0 30.0)
           (-30.0 30.0)
  end
  begin
     id 12 
     name upperback
     direction 0.0218081 0.999627 -0.0164647   
     length 2.16755   
     axis 0 0 0   XYZ
    dof rx ry rz
    limits (-20.0 45.0)
           (-30.0 30.0)
           (-30.0 30.0)
  end
  begin
     id 13 
     name thorax
     direction 0.02365 0.999661 0.0108914   
     length 2.16932   
     axis 0 0 0   XYZ
    dof rx ry rz
    limits (-20.0 45.0)
           (-30.0 30.0)
           (-30.0 30.0)
  end
  begin
     id 14 
     name lowerneck
     direction -0.0523929 0.978385 0.200044   
     length 1.63877   
     axis 0 0 0   XYZ
    dof rx ry rz
    limits (-20.0 45.0)
           (-30.0 30.0)
           (-30.0 30.0)
  end
  begin
     id 15 
     name upperneck
     direction 0.0448674 0.981321 -0.187074   
     length 1.69014   
     axis 0 0 0   XYZ
    dof rx ry rz
    limits (-20.0 45.0)
           (-30.0 30.0)
           (-30.0 30.0)
  end
  begin
     id 16
     name head
     direction 0.0199089 0.996118 -0.0857429  
     length 1.70094  
     axis 0 0 0   XYZ
    dof rx ry rz
    limits (-20.0 45.0)
           (-30.0 30.0)
           (-30.0 30.0)
  end
  begin
     id 17 
     name lclavicle
     direction 0.940366 0.30191 -0.156722  
     length 3.37521  
     axis 0 0 0   XYZ
    dof ry rz
    limits (-20.0 10.0)
           (0.0 20.0)
  end
  begin
     id 18 
     name lhumerus
     direction 1 -4.4897e-011 -1.7911e-027   
     length 5.25287   
     axis 180 -30 -90   XYZ
    dof rx ry rz
    limits (-60.0 90.0)
           (-90.0 90.0)
           (-90.0 90.0)
  end
  begin
     id 19
     name lradius
     direction 1 -4.48951e-011 1.04424e-027   
     length 3.51014   
     axis 180 -30 -90   XYZ
    dof rx
    limits (-10.0 170.0)
  end
  begin
     id 20
     name lwrist
     direction 1 -4.48997e-011 -9.5942e-028   
     length 1.75507   
     axis 8.48502e-016 90 90   XYZ
    dof ry
    limits (-180.0 0.0)
 end
  begin
     id 21 
     name lhand
     direction 1 -4.48831e-011 -1.90777e-027   
     length 0.706179   
     axis 1.22306e-015 90 90   XYZ
    dof rx rz
    limits (-90.0 90.0)
           (-45.0 45.0)
  end
  begin
     id 22 
     name lfingers
     direction 1 -4.49108e-011 -3.85244e-027   
     length 0.569339   
     axis 2.44611e-015 90 90   XYZ
    dof rx
    limits (0.0 90.0)
  end
  begin
     id 23
     name lthumb
     direction 0.707107 -6.34953e-011 0.707107   
     length 0.817461   
     axis -90 45 -1.62303e-014   XYZ
    dof rx rz
    limits (-45.0 45.0)
           (-45.0 45.0)
  end
  begin
     id 24 
     name rclavicle
     direction -0.905329 0.382405 -0.184787   
     length 3.30787  
     axis 0 0 0   XYZ 
    dof ry rz
    limits (-10.0 20.0)
           (-20.0 0.0)
  end
  begin
     id 25 
     name rhumerus
     direction -1 -4.48953e-011 -9.15316e-029  
     length 5.28721   
     axis 180 30 90   XYZ
    dof rx ry rz
    limits (-90.0 60.0)
           (-90.0 90.0)
           (-90.0 90.0)
  end
  begin
     id 26 
     name rradius
     direction -1 -4.48987e-011 9.37824e-028   
     length 3.50544   
     axis 180 30 90   XYZ
    dof rx
    limits (-10.0 170.0)
  end
  begin
     id 27 
     name rwrist
     direction -1 -4.48967e-011 -9.58414e-028   
     length 1.75272   
     axis 8.48502e-016 -90 -90   XYZ
    dof ry
    limits (-180.0 0.0)
  end
  begin
     id 28
     name rhand
     direction -1 -4.48904e-011 -1.91266e-027   
     length 0.884996   
     axis 1.22306e-015 -90 -90   XYZ
    dof rx rz
    limits (-90.0 90.0)
           (-45.0 45.0)
  end
  begin
     id 29
     name rfingers
     direction -1 -4.4909e-011 -3.85015e-027   
     length 0.713507   
     axis 2.44611e-015 -90 -90   XYZ
    dof rx
    limits (0.0 90.0)
  end
  begin
     id 30
     name rthumb
     direction -0.707107 -6.34853e-011 0.707107   
     length 1.02446   
     axis -90 -45 1.62303e-014   XYZ
    dof rx rz
    limits (-45.0 45.0)
           (-45.0 45.0)
  end
:hierarchy
  begin
    root lhipjoint rhipjoint lowerback
    lhipjoint lfemur
    lfemur ltibia
    ltibia lfoot
    lfoot ltoes
    rhipjoint rfemur
    rfemur rtibia
    rtibia rfoot
    rfoot rtoes
    lowerback upperback
    upperback thorax
    thorax lowerneck lclavicle rclavicle
    lowerneck upperneck
    upperneck head
    lclavicle lhumerus
    lhumerus lradius
    lradius lwrist
    lwrist lhand lthumb
    lhand lfingers
    rclavicle rhumerus
    rhumerus rradius
    rradius rwrist
    rwrist rhand rthumb
    rhand rfingers
  end

#!OML:ASF F:\twosubjects\two\Thursday\Session 1\justin.ASF
:FULLY-SPECIFIED
:DEGREES
374
root 10.5644 17.8249 -12.0285 1.38278 -53.9328 5.37079
lowerback -2.21765 1.97139 -1.71353
upperback -0.0672379 2.65761 1.08336
thorax 1.04374 1.31723 2.14927
lowerneck -17.519 10.1095 -1.3235
upperneck 24.8635 13.518 3.86969
head 10.461 6.50511 3.4326
rclavicle 5.24295e-014 1.03368e-014
rhumerus -31.3629 -13.8212 -76.238
rradius 33.9708
rwrist -5.42722
rhand -18.1888 14.2084
rfingers 7.12502
rthumb 8.08811 -15.6168
lclavicle 5.24295e-014 1.03368e-014
lhumerus -42.9438 43.66 64.7168
lradius 19.8133
lwrist -20.349
lhand -10.9366 46.7704
lfingers 7.12502
lthumb 15.0815 76.201
rfemur -7.19718 -0.91566 6.68323
rtibia 21.2828
rfoot -15.2596 -15.2483
rtoes -17.6569
lfemur -6.17645 11.7601 -26.0104
ltibia 15.3549
lfoot -13.1016 2.07425
ltoes -8.95122
375
root 10.5579 17.815 -12.022 0.347271 -53.6879 6.46747
lowerback -2.14748 2.05251 -2.3807
upperback 0.0117727 2.7861 0.800035
thorax 1.06156 1.37813 2.2342
lowerneck -17.6266 9.89577 -1.55244
upperneck 24.7349 13.2099 4.13868
head 10.4045 6.38203 3.51783
rclavicle -1.80894e-014 -4.77083e-015
rhumerus -31.5984 -15.4555 -75.3547
rradius 32.326
rwrist -5.22939
rhand -18.2359 13.781
rfingers 7.12502
rthumb 8.04263 -16.046
lclavicle -1.80894e-014 -4.77083e-015
lhumerus -45.9037 46.1247 61.2955
lradius 18.9269
lwrist -21.5885
lhand -10.6753 47.1658
lfingers 7.12502
lthumb 15.3332 76.5773
rfemur -6.93688 -1.21093 5.92241
rtibia 21.3433
rfoot -15.3728 -15.1225
rtoes -17.8203
lfemur -5.88155 11.556 -26.6883
ltibia 15.2432
lfoot -13.1498 1.98348
ltoes -8.22154
376
root 10.55 17.8046 -12.0111 -0.62831 -53.5686 7.47171
lowerback -2.04117 2.1003 -2.99183
upperback 0.0411678 2.86493 0.590789
thorax 1.00874 1.41542 2.35923
lowerneck -17.9926 9.76214 -2.09574
upperneck 24.9247 13.0354 4.72171
head 10.4587 6.32106 3.80762
rclavicle 2.51463e-014 6.36111e-015
rhumerus -32.0988 -16.4098 -74.5322
rradius 30.94
rwrist -5.52563
rhand -18.4182 13.2142
rfingers 7.12502
rthumb 7.86674 -16.6194
lclavicle 2.51463e-014 6.36111e-015
lhumerus -49.2692 48.3087 57.4971
lradius 17.9007
lwrist -23.2572
lhand -10.5809 47.3551
lfingers 7.12502
lthumb 15.4242 76.7597
rfemur -6.63949 -1.46076 5.18103
rtibia 21.3464
rfoot -15.5445 -14.8945
rtoes -17.7321
lfemur -5.62836 11.5413 -27.3275
ltibia 15.2836
lfoot -13.291 1.97687
ltoes -8.40793
377
root 10.5476 17.8095 -12.0211 -0.257737 -53.4651 7.00275
lowerback -1.83538 2.10082 -2.8552
upperback -0.0378991 2.85433 0.688433
thorax 0.814631 1.41486 2.37192
lowerneck -18.3154 9.69651 -2.43373
upperneck 25.0977 12.996 4.94574
head 10.5399 6.29427 3.96015
rclavicle -1.20513e-013 7.95139e-015
rhumerus -32.5313 -17.448 -73.6145
rradius 29.5509
rwrist -5.16828
rhand -18.3367 12.4073
rfingers 7.12502
rthumb 7.94535 -17.4234
lclavicle -1.20513e-013 7.95139e-015
lhumerus -53.4289 50.603 52.8046
lradius 16.9999
lwrist -25.7221
lhand -9.41607 47.681
lfingers 7.12502
lthumb 16.5459 76.9956
rfemur -6.59056 -1.23447 5.54408
rtibia 21.3359
rfoot -15.6203 -15.1456
rtoes -17.1875
lfemur -5.68407 11.4318 -26.986
ltibia 15.3357
lfoot -13.2229 1.98982
ltoes -8.30233
378
root 10.5461 17.8234 -12.0398 0.933591 -53.4145 5.6889
lowerback -1.81916 2.30306 -2.20867
upperback -0.0521984 3.1086 0.800604
thorax 0.803192 1.54449 2.12952
lowerneck -18.4637 9.45143 -2.0608
upperneck 24.9308 12.668 4.47941
head 10.5891 6.11986 3.70674
rclavicle -2.93207e-015 -1.11319e-014
rhumerus -32.9673 -19.9492 -72.1729
rradius 28.0574
rwrist -2.98403
rhand -17.7085 12.3116
rfingers 7.12502
rthumb 8.55164 -17.4952
lclavicle -2.93207e-015 -1.11319e-014
lhumerus -55.9359 51.4564 49.9988
lradius 16.4529
lwrist -27.3548
lhand -6.30975 49.9175
lfingers 7.12502
lthumb 19.5346 78.9561
rfemur -6.72593 -0.744213 6.53704
rtibia 21.2338
rfoot -15.5845 -15.6123
rtoes -16.4366
lfemur -6.00787 11.3739 -26.0788
ltibia 15.4895
lfoot -13.0094 1.8967
ltoes -6.82686
379
root 10.5416 17.8319 -12.048 1.51679 -53.2712 4.96289
lowerback -1.76447 2.56398 -1.81066
upperback -0.0417247 3.44801 0.725442
thorax 0.793447 1.71571 1.83484
lowerneck -18.4669 9.32039 -1.07428
upperneck 24.7681 12.4346 3.5634
head 10.6864 5.98549 3.21068
rclavicle -2.9271e-014 1.11319e-014
rhumerus -33.7088 -22.3942 -70.7415
rradius 26.7497
rwrist -1.32169
rhand -17.3526 12.3615
rfingers 7.12502
rthumb 8.89515 -17.431
lclavicle -2.9271e-014 1.11319e-014
lhumerus -57.2156 51.2971 48.6066
lradius 16.0433
lwrist -28.2022
lhand -7.91793 49.0958
lfingers 7.12502
lthumb 17.9878 78.2839
rfemur -6.62015 -0.551096 7.08137
rtibia 21.0797
rfoot -15.6307 -15.8516
rtoes -15.7574
lfemur -6.14168 11.223 -25.5529
ltibia 15.7227
lfoot -12.9415 1.90411
ltoes -5.66074
380
root 10.537 17.8338 -12.0553 1.57996 -52.8446 4.87917
lowerback -1.56063 2.55298 -1.89968
upperback -0.176534 3.43099 0.695429
thorax 0.538587 1.71112 1.83881
lowerneck -18.2594 9.4964 -0.246995
upperneck 24.722 12.6756 2.68536
head 10.7555 6.05763 2.80596
rclavicle -1.14301e-015 1.03368e-014
rhumerus -34.4406 -23.3485 -69.8634
rradius 25.6928
rwrist -1.42987
rhand -17.683 12.157
rfingers 7.12502
rthumb 8.57631 -17.6489
lclavicle -1.14301e-015 1.03368e-014
lhumerus -59.6182 51.4168 46.2181
lradius 15.736
lwrist -29.5112
lhand -9.34492 48.3975
lfingers 7.12502
lthumb 16.6144 77.7064
rfemur -6.43038 -0.869987 7.18818
rtibia 20.9742
rfoot -15.6104 -16.0079
rtoes -15.92
lfemur -6.18686 10.9991 -25.4579
ltibia 15.8327
lfoot -13.1194 1.77836
ltoes -6.41733
381
root 10.5279 17.8314 -12.0573 1.41824 -52.4081 5.21811
lowerback -1.60427 2.46467 -2.29843
upperback -0.27614 3.32031 0.687963
thorax 0.443752 1.65732 2.05087
lowerneck -18.0146 9.5044 -0.29349
upperneck 24.5997 12.7523 2.48668
head 10.6749 6.06925 2.73403
rclavicle -3.80673e-014 -3.97569e-015
rhumerus -35.092 -24.2111 -68.8817
rradius 24.78
rwrist -0.912201
rhand -17.9337 11.7557
rfingers 7.12502
rthumb 8.33436 -18.0599
lclavicle -3.80673e-014 -3.97569e-015
lhumerus -61.0678 50.9991 45.3803
lradius 15.8348
lwrist -29.7844
lhand -9.1085 48.5477
lfingers 7.12502
lthumb 16.842 77.8373
rfemur -6.35778 -1.38672 6.97223
rtibia 20.9371
rfoot -15.5677 -16.0073
rtoes -16.2462
lfemur -6.2464 10.9233 -25.6852
ltibia 15.7604
lfoot -13.2652 1.48273
ltoes -7.36853
382
root 10.5162 17.8309 -12.0545 1.26109 -52.1206 5.45554
lowerback -1.73852 2.46116 -2.56441
upperback -0.250171 3.32423 0.643992
thorax 0.532784 1.6574 2.16155
lowerneck -18.1833 9.31556 -1.12146
upperneck 24.6959 12.5129 3.30211
head 10.6211 5.98814 3.11709
rclavicle 5.26779e-014 -5.56597e-015
rhumerus -35.7486 -25.4947 -67.7202
rradius 23.9506
rwrist 0.300438
rhand -17.807 11.3444
rfingers 7.12502
rthumb 8.45655 -18.4663
lclavicle 5.26779e-014 -5.56597e-015
lhumerus -61.3607 50.1393 45.9684
lradius 16.2633
lwrist -29.2375
lhand -7.98433 49.0421
lfingers 7.12502
lthumb 17.9239 78.2362
rfemur -6.27677 -1.62955 6.82989
rtibia 20.9145
rfoot -15.4801 -16.1253
rtoes -16.7363
lfemur -6.18775 10.8141 -25.8333
ltibia 15.6525
lfoot -13.1431 1.28945
ltoes -6.57896
383
root 10.5034 17.8343 -12.0555 1.47196 -51.8928 5.14571
lowerback -1.79727 2.51132 -2.52075
upperback -0.191607 3.39228 0.66
thorax 0.623468 1.68956 2.15938
lowerneck -18.3472 9.06971 -2.19889
upperneck 24.577 12.1314 4.61338
head 10.4404 5.89238 3.67804
rclavicle 6.15736e-014 3.18055e-015
rhumerus -36.4234 -26.638 -66.7031
rradius 23.2644
rwrist 1.21496
rhand -17.7364 11.0578
rfingers 7.12502
rthumb 8.52472 -18.7501
lclavicle 6.15736e-014 3.18055e-015
lhumerus -61.4954 49.3384 46.4241
lradius 16.7085
lwrist -28.537
lhand -7.0977 49.2155
lfingers 7.12502
lthumb 18.7769 78.3293
rfemur -6.18275 -1.58754 7.11867
rtibia 20.8956
rfoot -15.3332 -16.5126
rtoes -17.5635
lfemur -6.06932 10.6542 -25.5759
ltibia 15.5371
lfoot -13.0125 1.15839
ltoes -5.69144
